<svg width="1388" height="1392" viewBox="0 0 1388 1392" fill="none" xmlns="http://www.w3.org/2000/svg">
<path d="M1380.38 684.803C1375.62 675.721 1368.59 667.873 1360.1 662.184L1259.37 593.333C1258.59 592.785 1258.04 591.962 1257.87 591.003C1257.69 590.078 1257.87 589.084 1258.38 588.364L1327.88 487.539C1333.67 479.108 1337.31 469.238 1338.33 459.06C1339.4 448.881 1337.85 438.497 1333.91 429.038C1329.97 419.579 1323.67 411.183 1315.71 404.774C1307.73 398.331 1298.2 393.979 1288.13 392.128L1167.87 370.161C1166.91 369.989 1166.09 369.441 1165.54 368.653C1164.99 367.864 1164.79 366.905 1164.92 366.014L1187.13 245.654C1188.98 235.579 1188.26 225.126 1185.07 215.393C1181.89 205.66 1176.27 196.818 1168.83 189.792C1161.39 182.767 1152.21 177.661 1142.34 175.056C1132.47 172.451 1121.95 172.314 1112.01 174.748L993.225 203.535C992.3 203.775 991.306 203.604 990.483 203.09C989.661 202.576 989.078 201.787 988.838 200.862L960.188 81.976C957.789 72.0374 952.854 62.75 946 55.1761C939.111 47.5679 930.372 41.7761 920.708 38.3833C911.043 34.9905 900.59 34.0652 890.481 35.6759C880.371 37.3209 870.741 41.4677 862.618 47.7393L765.666 122.587C765.289 122.896 764.843 123.101 764.398 123.204C763.952 123.341 763.472 123.375 762.993 123.307C762.547 123.238 762.102 123.101 761.656 122.861C761.245 122.621 760.902 122.313 760.594 121.936L686.054 25.0176C679.817 16.8954 671.558 10.4182 662.202 6.23712C652.846 2.09033 642.462 0.308244 632.283 1.16502C622.07 1.98752 612.132 5.38035 603.564 11.0008C594.996 16.6212 587.902 24.3322 583.07 33.3112L524.912 140.922C524.467 141.779 523.713 142.361 522.787 142.636C521.862 142.91 520.902 142.807 520.114 142.361L412.572 84.1693C403.593 79.2686 393.414 76.6983 383.167 76.6983H383.133C372.886 76.6983 362.708 79.3028 353.729 84.2036C344.75 89.1043 337.039 96.267 331.487 104.869C325.935 113.471 322.576 123.444 321.822 133.588L312.501 255.49C312.466 255.97 312.329 256.415 312.124 256.861C311.918 257.272 311.644 257.615 311.301 257.923C310.924 258.232 310.513 258.472 310.102 258.609C309.656 258.746 309.211 258.814 308.696 258.78L186.795 249.355C176.582 248.533 166.232 250.349 156.876 254.53C147.52 258.711 139.295 265.223 133.058 273.379C126.82 281.536 122.708 291.166 121.131 301.276C119.555 311.386 120.549 321.839 123.976 331.503L165.067 446.653C165.238 447.099 165.307 447.579 165.272 448.024C165.272 448.504 165.135 448.95 164.93 449.361C164.724 449.806 164.45 450.183 164.073 450.492C163.73 450.8 163.319 451.04 163.011 451.177L47.8601 491.788C38.2299 495.215 29.5251 501.076 22.6709 508.718C15.851 516.361 10.9845 525.648 8.6198 535.587C6.2551 545.525 6.42646 556.012 9.09959 565.916C11.7727 575.787 16.9134 584.937 23.9732 592.339L108.314 680.793C108.657 681.136 108.897 681.547 109.068 682.027C109.239 682.472 109.308 682.952 109.308 683.432C109.308 683.911 109.205 684.391 108.999 684.803C108.794 685.248 108.52 685.625 108.143 686.002L19.4837 770.343C12.0812 777.403 6.495 786.313 3.34207 796.046C0.189139 805.779 -0.462009 816.266 1.42289 826.342C3.3078 836.417 7.72875 845.91 14.206 853.861C20.6832 861.812 29.0796 868.049 38.5726 871.956L151.598 918.428C152.455 918.771 153.175 919.49 153.517 920.347C153.894 921.238 153.894 922.198 153.517 923.089L106.875 1036.11C102.968 1045.57 101.46 1055.96 102.557 1066.17C103.653 1076.35 107.286 1086.18 113.112 1094.61C118.938 1103.05 126.82 1109.93 135.971 1114.59C145.121 1119.22 155.334 1121.52 165.581 1121.21L287.723 1117.68C288.682 1117.75 289.608 1118.02 290.327 1118.67C291.047 1119.32 291.424 1120.25 291.458 1121.14L294.817 1243.39C295.091 1253.63 297.97 1263.71 303.11 1272.58C308.251 1281.43 315.585 1288.93 324.324 1294.28C333.063 1299.62 343.105 1302.71 353.317 1303.22C363.564 1303.74 373.846 1301.68 383.099 1297.22L493.246 1244.31C494.102 1243.9 495.096 1243.83 496.022 1244.17C496.913 1244.48 497.667 1245.17 498.044 1245.96L550.547 1356.21C554.968 1365.42 561.685 1373.48 569.978 1379.51C578.272 1385.51 588.039 1389.38 598.183 1390.68C600.788 1391.02 603.427 1391.2 606.066 1391.2C613.64 1391.2 621.214 1389.79 628.308 1387.05C637.869 1383.35 646.437 1377.28 653.051 1369.47L732.217 1276.32C732.526 1275.98 732.903 1275.67 733.314 1275.46C733.725 1275.26 734.171 1275.12 734.65 1275.09C735.096 1275.09 735.576 1275.09 736.056 1275.26C736.501 1275.39 736.912 1275.63 737.255 1275.94L830.369 1355.42C838.149 1362.13 847.608 1366.79 857.615 1368.95C867.656 1371.11 878.177 1370.7 888.013 1367.79C897.849 1364.88 906.896 1359.46 914.127 1352.2C921.393 1344.93 926.739 1335.85 929.584 1326.08L964.06 1208.67C964.197 1208.22 964.403 1207.81 964.711 1207.47C964.986 1207.13 965.363 1206.82 965.774 1206.58C966.185 1206.37 966.631 1206.24 967.076 1206.17C967.522 1206.1 968.001 1206.17 968.55 1206.3L1085.76 1240.81C1095.59 1243.73 1106.08 1244.14 1116.12 1242.01C1126.16 1239.89 1135.59 1235.23 1143.37 1228.55C1151.15 1221.86 1157.18 1213.3 1160.84 1203.7C1164.51 1194.1 1165.68 1183.69 1164.31 1173.58L1148.1 1052.43C1147.96 1051.47 1148.23 1050.51 1148.82 1049.72C1149.4 1048.97 1150.25 1048.45 1151.11 1048.35L1272.33 1032.24C1282.47 1030.87 1292.2 1026.96 1300.5 1020.93C1308.76 1014.9 1315.47 1006.81 1319.86 997.559C1324.25 988.306 1326.27 978.025 1325.72 967.812C1325.17 957.565 1322.02 947.558 1316.67 938.853L1252.59 834.841C1252.07 834.018 1251.94 833.024 1252.14 832.099C1252.38 831.174 1252.93 830.351 1253.72 829.872L1357.83 765.888C1366.68 760.507 1374.04 752.933 1379.18 743.989C1384.33 735.01 1387.17 724.831 1387.38 714.515C1387.58 704.2 1385.15 693.919 1380.38 684.734V684.803Z" fill="#819BFD"/>
<path d="M282.582 539.082L297.456 509.883L371.858 531.817L310.308 484.66L325.181 455.461L400.852 493.982L392.764 509.883L325.353 475.578L385.601 523.969L373.538 547.684L298.998 527.327L366.409 561.632L358.253 577.637L282.582 539.116V539.082Z" fill="#D7E743"/>
<path d="M358.869 413.891L379.638 390.963L459.318 429.484L446.226 443.946L422.374 431.917L403.867 452.343L418.193 474.927L405.17 489.287L358.904 413.891H358.869ZM408.254 424.823L376.074 408.51L395.402 439.011L408.254 424.823Z" fill="#D7E743"/>
<path d="M414.08 359.4L428.782 347.713L481.594 414.199L466.892 425.885L414.08 359.4Z" fill="#D7E743"/>
<path d="M450.682 330.373L478.201 315.19L533.686 366.426L499.072 303.675L514.803 295.005L555.791 369.373L528.271 384.555L472.923 333.525L507.4 396.07L491.67 404.741L450.682 330.373Z" fill="#D7E743"/>
<path d="M582.316 314.779C577.45 288.493 591.33 268.033 616.313 263.441C636.807 259.637 651.612 266.354 659.289 282.564L642.291 291.337C637.527 282.05 629.576 278.143 619.261 280.028C605.518 282.564 598.869 294.319 601.988 311.146C605.072 327.836 615.491 336.575 629.37 334.005C639.549 332.12 645.581 325.608 646.712 315.258L665.458 317.315C664.121 335.204 652.915 346.822 632.558 350.592C607.471 355.218 587.183 340.962 582.351 314.813L582.316 314.779Z" fill="#D7E743"/>
<path d="M732.869 307.548L700.037 305.628L697.844 342.915L679.097 341.819L684.101 257.032L702.847 258.129L701.031 288.801L733.862 290.721L735.679 260.048L754.322 261.145L749.353 345.931L730.709 344.834L732.903 307.548H732.869Z" fill="#D7E743"/>
<path d="M804.255 272.283L833.9 281.124L833.557 369.612L814.845 364.026L815.393 337.295L788.97 329.412L774.816 352.065L756.241 346.513L804.255 272.248V272.283ZM815.702 321.564L816.524 285.511L797.367 316.115L815.702 321.599V321.564Z" fill="#D7E743"/>
<path d="M881.502 299.151L913.237 317.212C930.098 326.808 935.033 340.277 927.597 353.368C920.982 364.986 908.987 368.276 894.388 362.039L902.75 408.921L882.77 397.543L875.333 347.988L855.867 382.224L839.52 372.937L881.502 299.151ZM896.033 345.931C902.956 349.872 908.508 349.564 911.558 344.218C914.642 338.769 912.14 333.731 905.218 329.79L890.447 321.393L881.262 337.501L896.033 345.897V345.931Z" fill="#D7E743"/>
<path d="M980.854 365.157L1003.51 386.268L963.821 465.366L949.564 452.068L961.936 428.387L941.751 409.572L918.995 423.589L904.806 410.361L980.854 365.191V365.157ZM969.202 414.37L985.994 382.43L955.219 401.313L969.236 414.37H969.202Z" fill="#D7E743"/>
<path d="M1000.18 443.09C1022.42 428.25 1046.69 432.945 1060.77 454.091C1072.32 471.432 1072.01 487.676 1060.12 501.11L1045.35 488.944C1052 480.891 1052.48 472.049 1046.65 463.344C1038.91 451.726 1025.47 450.252 1011.25 459.745C997.132 469.17 993.225 482.193 1001.04 493.913C1006.8 502.55 1015.12 505.497 1025.13 502.481L1030.65 520.508C1013.68 526.334 998.571 520.611 987.091 503.372C972.937 482.124 978.043 457.895 1000.18 443.124V443.09Z" fill="#D7E743"/>
<path d="M1082.16 533.668L1073.83 512.488L1089.63 506.285L1113.17 566.122L1097.37 572.325L1089.05 551.146L1025.82 576.027L1018.93 558.548L1082.16 533.668Z" fill="#D7E743"/>
<path d="M1119.45 590.043L1129.59 643.883L1113.86 646.83L1107.21 611.462L1091.96 614.341L1097.17 641.929L1081.44 644.877L1076.23 617.289L1055.29 621.23L1062.01 656.837L1046.28 659.819L1036.1 605.739L1119.51 590.009L1119.45 590.043Z" fill="#D7E743"/>
<path d="M1132.3 670.957L1131.58 707.456C1131.2 726.853 1121.71 737.614 1106.66 737.34C1093.3 737.066 1084.69 728.121 1083.19 712.288L1045.97 742.035L1046.41 719.039L1086.41 688.881L1047.03 688.093L1047.41 669.312L1132.3 670.991V670.957ZM1098.13 706.051C1097.96 714.001 1100.9 718.765 1107.04 718.868C1113.31 719.005 1116.53 714.344 1116.67 706.393L1117.01 689.429L1098.47 689.052L1098.13 706.016V706.051Z" fill="#D7E743"/>
<path d="M1105.22 853.21L1090.35 882.409L1015.95 860.475L1077.5 907.632L1062.62 936.831L986.953 898.31L995.041 882.409L1062.45 916.714L1002.2 868.323L1014.27 844.608L1088.77 864.965L1021.36 830.66L1029.48 814.655L1105.15 853.176L1105.22 853.21Z" fill="#D7E743"/>
<path d="M1028.97 978.368L1008.2 1001.29L928.522 962.774L941.613 948.312L965.5 960.341L984.006 939.916L969.681 917.331L982.704 902.971L1028.97 978.368ZM979.585 967.401L1011.77 983.714L992.437 953.213L979.585 967.401Z" fill="#D7E743"/>
<path d="M973.759 1032.89L959.057 1044.58L906.246 978.093L920.948 966.407L973.759 1032.89Z" fill="#D7E743"/>
<path d="M937.158 1061.89L909.638 1077.07L854.154 1025.83L888.767 1088.58L873.037 1097.25L832.049 1022.89L859.568 1007.7L914.916 1058.73L880.439 996.188L896.17 987.518L937.158 1061.89Z" fill="#D7E743"/>
<path d="M805.523 1077.48C810.39 1103.76 796.51 1124.19 771.56 1128.82C751.066 1132.62 736.261 1125.9 728.585 1109.69L745.583 1100.92C750.347 1110.21 758.298 1114.11 768.613 1112.23C782.356 1109.69 789.004 1097.94 785.886 1081.11C782.801 1064.42 772.383 1055.68 758.503 1058.25C748.325 1060.14 742.293 1066.65 741.162 1077L722.416 1074.94C723.752 1057.05 734.959 1045.44 755.35 1041.67C780.437 1037.04 800.725 1051.3 805.557 1077.44L805.523 1077.48Z" fill="#D7E743"/>
<path d="M654.971 1084.75L687.802 1086.66L689.996 1049.38L708.742 1050.47L703.773 1135.26L685.026 1134.16L686.843 1103.49L654.011 1101.57L652.195 1132.24L633.552 1131.15L638.555 1046.36L657.198 1047.46L655.005 1084.75H654.971Z" fill="#D7E743"/>
<path d="M583.585 1119.98L553.906 1111.13L554.249 1022.65L572.926 1028.23L572.378 1054.96L598.801 1062.85L612.955 1040.16L631.53 1045.71L583.516 1119.98H583.585ZM572.138 1070.69L571.315 1106.75L590.473 1076.14L572.138 1070.69Z" fill="#D7E743"/>
<path d="M506.338 1093.14L474.603 1075.08C457.741 1065.48 452.806 1052.02 460.243 1038.92C466.857 1027.31 478.852 1024.02 493.452 1030.25L485.09 983.371L505.07 994.749L512.506 1044.3L532.007 1010.07L548.32 1019.36L506.338 1093.14ZM491.807 1046.36C484.884 1042.42 479.332 1042.73 476.282 1048.07C473.198 1053.52 475.734 1058.56 482.622 1062.5L497.393 1070.9L506.578 1054.79L491.807 1046.4V1046.36Z" fill="#D7E743"/>
<path d="M406.986 1027.14L384.367 1006.02L424.053 926.927L438.31 940.224L425.938 963.905L446.123 982.72L468.879 968.703L483.067 981.932L407.02 1027.1L406.986 1027.14ZM418.638 977.888L401.845 1009.83L432.621 990.945L418.604 977.888H418.638Z" fill="#D7E743"/>
<path d="M387.657 949.203C365.415 964.042 341.151 959.347 327.066 938.202C315.517 920.861 315.825 904.616 327.717 891.182L342.488 903.348C335.839 911.402 335.36 920.244 341.186 928.949C348.931 940.566 362.365 942.04 376.588 932.547C390.707 923.123 394.614 910.1 386.8 898.379C381.043 889.743 372.715 886.795 362.708 889.811L357.19 871.785C374.154 865.959 389.268 871.682 400.749 888.92C414.902 910.168 409.796 934.432 387.657 949.169V949.203Z" fill="#D7E743"/>
<path d="M305.646 858.591L313.974 879.77L298.175 885.973L274.631 826.136L290.43 819.899L298.758 841.078L361.988 816.197L368.876 833.675L305.646 858.556V858.591Z" fill="#D7E743"/>
<path d="M268.394 802.249L258.25 748.409L273.98 745.462L280.629 780.83L295.879 777.951L290.67 750.363L306.401 747.416L311.61 775.004L332.549 771.062L325.832 735.455L341.563 732.473L351.741 786.553L268.326 802.249H268.394Z" fill="#D7E743"/>
<path d="M255.543 721.336L256.262 684.837C256.639 665.44 266.132 654.679 281.177 654.953C294.543 655.227 303.145 664.172 304.653 680.005L341.871 650.258L341.426 673.253L301.431 703.412L340.809 704.2L340.432 722.981L255.543 721.301V721.336ZM289.711 686.242C289.882 678.291 286.935 673.528 280.8 673.425C274.529 673.288 271.307 677.949 271.17 685.899L270.827 702.864L289.368 703.241L289.711 686.242Z" fill="#D7E743"/>
<path d="M633.711 858.537C590.77 842.429 555.985 809.975 536.93 768.267C517.875 726.559 516.093 679.025 531.995 636.015L537.41 638.003C521.954 679.71 523.701 725.839 542.242 766.245C560.783 806.65 594.642 838.042 636.35 853.499C677.989 868.749 723.981 866.83 764.249 848.255C804.518 829.646 835.773 795.889 851.195 754.284L856.541 756.272C840.502 799.35 808.048 834.307 766.271 853.464C724.495 872.622 676.824 874.438 633.745 858.502L633.711 858.537Z" fill="#D7E743" stroke="#D7E743" stroke-width="13.7084" stroke-miterlimit="10"/>
<path d="M647.146 619.874C634.295 615.11 638.476 582.45 648.791 554.622C659.107 526.794 677.099 499.24 690.088 504.072C703.077 508.904 698.793 541.427 688.443 569.324C678.093 597.221 659.518 624.466 647.146 619.874Z" fill="#D7E743"/>
<path d="M779.569 668.95C766.718 664.186 770.899 631.526 781.214 603.698C791.53 575.87 809.522 548.316 822.511 553.148C835.499 557.946 831.284 590.538 820.934 618.435C810.584 646.331 792.489 673.748 779.569 668.95Z" fill="#D7E743"/>
<path d="M781.351 460.205C843.896 483.372 894.685 530.461 922.547 591.12C950.41 651.746 953.014 720.939 929.847 783.518C906.646 846.096 859.557 896.886 798.932 924.748C738.307 952.576 669.079 955.215 606.501 932.014C543.922 908.812 493.132 861.724 465.27 801.099C437.442 740.473 434.803 671.246 458.004 608.667C481.274 546.191 528.397 495.47 589.022 467.642C649.613 439.814 718.807 437.175 781.351 460.239V460.205ZM783.339 454.79C751.672 443.001 717.984 437.586 684.193 438.854C650.402 440.122 617.227 448.005 586.486 462.124C555.779 476.244 528.123 496.258 505.161 521.036C482.2 545.848 464.345 574.91 452.624 606.645C440.835 638.311 435.42 672.034 436.654 705.791C437.887 739.582 445.804 772.791 459.889 803.497C474.009 834.204 494.023 861.861 518.835 884.822C543.648 907.784 572.709 925.639 604.444 937.36C636.111 949.149 669.833 954.564 703.624 953.296C737.416 952.028 770.59 944.111 801.331 930.026C832.038 915.906 859.695 895.892 882.656 871.08C905.618 846.267 923.473 817.171 935.159 785.471C946.948 753.804 952.363 720.082 951.095 686.325C949.827 652.534 941.945 619.36 927.825 588.653C913.706 557.946 893.691 530.289 868.879 507.327C844.067 484.366 815.074 466.511 783.339 454.79Z" fill="#D7E743" stroke="#D7E743" stroke-width="13.7084" stroke-miterlimit="10"/>
</svg>
