<svg width="1354" height="794" viewBox="0 0 1354 794" fill="none" xmlns="http://www.w3.org/2000/svg">
<path d="M1353.49 592.849V680.72C1353.49 742.888 1303.12 793.3 1240.95 793.3H966.404C957.287 793.3 948.411 792.169 939.912 790.147C931.413 792.169 922.64 793.3 913.661 793.3H796.865C779.627 793.3 762.903 789.325 747.858 782.025C733.019 789.256 716.328 793.3 698.713 793.3H598.196C585.071 793.3 572.493 791.038 560.772 786.891C549.052 791.038 536.474 793.3 523.349 793.3H422.797C375.778 793.3 335.509 764.444 318.682 723.49C301.855 764.444 261.587 793.3 214.567 793.3H112.816C50.6489 793.3 0.236415 742.888 0.236415 680.72V268.474C-0.65463 236.328 3.6975 201.852 13.2248 171.933C18.0913 156.683 26.3165 135.983 40.8131 116.654C50.409 103.871 71.5199 80.5323 105.037 69.3942C118.985 51.4705 136.669 34.6091 159.014 21.3463C164.805 17.9192 178.822 9.69421 196.198 4.72492C204.937 2.22314 246.542 -7.81833 285.954 14.0808C291.026 13.2926 296.68 12.7098 302.883 12.6413C322.932 12.4357 355.455 17.9191 382.872 44.3763C390.137 45.8842 397.54 48.1806 404.977 51.4706C407.753 49.62 410.563 47.872 413.476 46.1584C416.046 44.6848 427.527 37.865 442.401 33.444C449.598 31.2849 468.275 26.2815 492.059 29.7086C520.436 33.8211 550.148 49.3799 569.751 78.3046C576.331 74.6719 583.597 71.4848 591.514 68.9487C603.646 54.6234 618.587 41.0521 637.025 30.3939C639.356 29.0573 648.541 23.6766 660.021 19.5298C665.47 17.5764 679.556 12.8469 698.165 12.6413C707.692 12.5385 720.03 13.738 733.327 17.8506C738.742 15.4516 744.876 13.0528 751.525 11.1679C762.457 8.04922 824.419 -6.79023 869.52 43.1769C879.973 45.0275 891.008 48.5232 902.351 54.4178C916.437 61.7518 927.164 70.8681 935.389 80.2926C942.483 76.1115 950.433 72.3416 959.207 69.4285C973.189 51.4706 990.873 34.6091 1013.22 21.3463H1013.25C1019.04 17.9192 1033.06 9.69421 1050.4 4.72492C1059.18 2.22314 1100.78 -7.81833 1140.19 14.0808C1145.23 13.2926 1150.92 12.7098 1157.12 12.6413C1177.17 12.4357 1209.69 17.9191 1237.11 44.3763C1250.92 47.2208 1265.28 52.9098 1279.37 62.8141C1310.11 84.5761 1320.01 114.015 1322.62 122.275C1326.18 133.481 1327.35 143.008 1327.79 146.949C1328.24 150.891 1328.48 155.072 1328.65 158.499C1328.82 161.96 1328.89 164.736 1328.92 165.867C1329.37 179.438 1329.98 196.402 1338.04 219.535C1344.45 233.689 1348.05 249.385 1348.05 265.904V353.809C1348.05 378.416 1340.13 401.172 1326.73 419.712C1327.28 424.167 1327.59 428.691 1327.59 433.284V519.372C1327.59 519.921 1327.55 520.435 1327.55 520.983C1343.73 540.483 1353.46 565.501 1353.46 592.849H1353.49Z" fill="white"/>
<path d="M1313.26 592.849V680.72C1313.26 720.714 1280.87 753.1 1240.91 753.1H966.37C957.048 753.1 948.172 751.284 940.015 748.062C931.722 751.318 922.811 753.1 913.627 753.1H796.831C778.393 753.1 760.915 746.075 747.687 733.874C734.801 745.766 717.631 753.1 698.679 753.1H598.162C584.454 753.1 571.671 749.228 560.738 742.579C549.806 749.228 537.023 753.1 523.315 753.1H422.763C382.803 753.1 350.417 720.714 350.417 680.72V592.095C348.669 592.198 346.922 592.335 345.174 592.335H286.879V680.72C286.879 720.714 254.493 753.1 214.533 753.1H112.782C72.7882 753.1 40.4021 720.714 40.4021 680.72V268.371C39.5111 240.132 43.3494 209.734 51.5059 184.133C55.6527 171.145 62.1984 155.106 72.9253 140.78C81.3216 129.608 99.7594 110.039 129.027 104.727C135.23 95.4398 142.427 86.4608 150.789 78.1672C159.151 69.9079 168.678 62.334 179.508 55.9254C184.923 52.7039 195.17 46.8096 207.199 43.3825C214.465 41.3262 249.523 33.0669 277.968 57.5364C278.071 57.4679 278.209 57.4334 278.346 57.3649C282.047 56.0626 291.266 52.9784 303.329 52.8413C316.9 52.7042 339.211 56.5422 357.34 75.5969C359.431 77.7902 361.281 80.0181 362.961 82.28C375.195 82.794 388.801 86.3926 401.927 95.6457C404.12 97.2222 406.142 98.8327 408.027 100.512C415.532 93.178 423.997 86.5295 433.593 80.9776C436.026 79.5725 443.977 74.9459 453.916 71.9644C458.714 70.525 470.914 67.2693 486.336 69.497C505.528 72.2729 525.679 83.1366 538.257 103.528C541.238 108.36 543.397 113.124 545.008 117.579C547.133 119.155 549.292 120.903 551.382 122.822C555.838 126.935 559.402 131.219 562.349 135.537C572.185 124.056 589.355 109.046 614.578 104.625C625.408 89.6826 639.322 75.4944 657.143 65.2131C659.37 63.9108 665.813 60.1751 673.593 57.3649C677.294 56.0626 686.513 52.9784 698.576 52.8413C708.035 52.7385 721.709 54.589 735.246 62.1286C740.73 58.8729 750.771 53.184 762.56 49.8254C770.991 47.4265 816.708 36.6993 846.181 78.1672C847.038 79.3667 847.826 80.5664 848.58 81.8001C859.067 81.5259 871.131 83.5138 883.811 90.0938C915.614 106.647 921.235 137.388 922.057 141.74C922.4 143.556 922.674 145.304 922.88 146.984C924.422 144.619 926.033 142.22 927.815 139.889C936.314 128.785 954.615 109.902 983.265 104.727C995.671 86.1866 1012.09 68.7427 1033.75 55.9254C1039.16 52.7039 1049.41 46.8096 1061.44 43.3825C1068.7 41.3262 1103.76 33.0669 1132.17 57.5364C1132.31 57.4679 1132.45 57.4334 1132.58 57.3649C1136.25 56.0626 1145.47 52.9784 1157.57 52.8413C1171.14 52.7042 1193.41 56.5422 1211.54 75.5969C1213.63 77.7902 1215.49 80.0181 1217.16 82.28C1229.43 82.794 1243.01 86.3926 1256.17 95.6457C1276.08 109.731 1282.55 128.854 1284.3 134.44C1286.7 141.911 1287.49 148.423 1287.83 151.37C1288.48 157.368 1288.65 164.153 1288.76 167.135C1289.24 182.248 1289.99 204.593 1300.65 234.443C1300.68 234.58 1300.72 234.717 1300.79 234.889C1305.28 244.279 1307.85 254.8 1307.85 265.904V353.809C1307.85 375.639 1298.15 395.14 1282.9 408.403C1285.74 416.182 1287.39 424.544 1287.39 433.283V519.372C1287.39 525.061 1286.67 530.579 1285.43 535.856C1302.36 549.119 1313.26 569.682 1313.26 592.849Z" fill="#FF5800"/>
<path d="M876.545 557.893L916.094 518.344V621.02L876.545 557.859V557.893Z" fill="#FF5800"/>
<path d="M772.088 392.056H737.851V419.198H772.088V392.056Z" fill="#FF5800"/>
<path fill-rule="evenodd" clip-rule="evenodd" d="M499.222 206.272C489.421 191.399 491.614 180.021 492.814 173.955C493.431 170.802 493.739 169.088 491.957 169.088C484.28 169.088 477.015 185.436 472.971 205.519C459.673 177.314 465.362 154.284 468.241 142.666C470.195 134.646 470.88 132.076 462.929 137.045C433.765 155.277 416.012 214.669 419.611 257.816H512.554C514.199 241.743 508.476 220.323 499.257 206.272H499.222Z" fill="#F8F666"/>
<path fill-rule="evenodd" clip-rule="evenodd" d="M834.117 159.459C835.66 145.476 835.934 142.769 824.247 157.197C808.037 177.177 797.619 203.908 795.22 230.091C792.444 226.835 789.599 223.477 786.686 220.084C757.727 186.43 765.336 150.068 769.688 129.369C773.047 113.398 774.417 106.784 755.5 117.991C728.152 134.235 711.393 169.534 705.053 206.958C702.654 202.914 699.946 198.802 696.999 194.655C673.661 162.098 680.172 136.737 683.12 125.256C684.902 118.299 685.381 116.483 677.088 121.246C648.437 137.834 629.417 189.72 630.548 230.297C630.034 229.029 629.588 227.761 629.177 226.527C625.373 215.217 623.591 203.154 622.048 193.044C619.992 179.301 618.45 169.089 613.172 169.089C594.255 169.089 580.581 216.177 581.575 257.816L905.195 335.097C888.026 291.847 832.13 177.554 834.117 159.459Z" fill="#F8F666"/>
<path fill-rule="evenodd" clip-rule="evenodd" d="M370.192 252.195C355.661 211.584 358.848 180.192 358.3 162.885C357.752 145.887 357.615 142.46 345.62 157.265C334.756 170.665 326.873 188.897 322.521 207.575C320.019 203.325 317.209 199.007 314.056 194.655C290.752 162.097 297.263 136.737 300.211 125.256C301.993 118.299 302.473 116.482 294.179 121.246C268.236 136.257 250.209 180.227 247.845 218.507C246.474 216.896 245.069 215.286 243.664 213.641C214.705 180.021 222.347 143.625 226.665 122.925C230.024 106.955 231.429 100.341 212.511 111.581C177.041 132.59 159.357 185.71 159.186 233.929C158.123 231.393 157.163 228.925 156.375 226.526C152.571 215.217 150.755 203.154 149.247 193.044C147.156 179.301 145.649 169.088 140.337 169.088C121.419 169.088 107.676 216.177 108.636 257.816H371.357C371.186 255.794 370.774 253.909 370.192 252.195Z" fill="#F8F666"/>
<path fill-rule="evenodd" clip-rule="evenodd" d="M1251.71 252.195C1237.21 211.584 1231.76 180.192 1231.18 162.885C1230.63 145.887 1230.53 142.46 1218.54 157.265C1207.64 170.665 1199.76 188.897 1195.4 207.575C1192.94 203.325 1190.09 199.007 1186.97 194.655C1163.67 162.097 1170.18 136.737 1173.13 125.256C1174.91 118.299 1175.35 116.482 1167.1 121.246C1141.15 136.257 1123.09 180.227 1120.73 218.507C1119.36 216.896 1117.98 215.286 1116.58 213.641C1087.62 180.021 1095.26 143.625 1099.58 122.925C1102.94 106.955 1104.35 100.341 1085.43 111.581C1049.92 132.59 1032.27 185.744 1032.1 233.963C1031.04 231.427 1030.08 228.96 1029.26 226.526C1025.49 215.217 1023.67 203.154 1022.16 193.044C1020.07 179.301 1018.56 169.088 1013.25 169.088C994.369 169.088 980.695 216.142 981.655 257.816H1252.91C1252.74 255.794 1252.33 253.909 1251.71 252.195Z" fill="#F8F666"/>
<path d="M108.636 257.85H371.323V337.085H201.545V419.884H337.36V499.118H201.545V677.807H108.636V257.85Z" fill="#F8F666"/>
<path d="M419.577 257.85H512.485V677.807H419.577V257.85Z" fill="#F8F666"/>
<path d="M581.576 257.85H762.081C857.971 257.85 912.188 303.705 912.188 378.176C912.188 444.284 868.698 487.774 790.663 496.719L941.352 677.807H827.573L674.484 483.01V677.807H581.576V257.85ZM758.483 423.448C797.791 423.448 821.027 408.54 821.027 378.176C821.027 347.812 797.791 331.704 758.483 331.704H674.484V423.448H758.483Z" fill="#F8F666"/>
<path d="M981.86 257.85H1252.88V337.085H1074.77V413.921H1213.57V493.155H1074.77V598.573H1254.07V677.807H981.86V257.85Z" fill="#F8F666"/>
</svg>
