<svg width="1514" height="1282" viewBox="0 0 1514 1282" fill="none" xmlns="http://www.w3.org/2000/svg">
<path d="M255.679 1164.02C112.632 1164.02 0.600098 1043.11 0.600098 889.203C0.600098 735.292 104.955 617.948 260.134 580.079C287.551 573.636 314.145 570.415 339.506 570.415C387.862 570.415 431.386 582.101 468.879 604.686C501.916 624.426 525.323 657.874 532.966 696.977C541.842 743.346 528.545 794.512 497.118 833.993C514.87 853.321 526.934 876.729 532.588 902.912C542.253 948.423 531.389 995.615 502.773 1032.28C455.205 1095.17 388.753 1139.9 317.401 1156.83C296.804 1161.62 275.865 1164.06 255.713 1164.06L255.679 1164.02Z" fill="#F286C0"/>
<path d="M534.542 1061.65C479.743 1061.65 430.153 1041.13 394.271 1003.63C369.699 977.862 340.26 931.494 340.26 859.353V675.969C342.247 607.462 387.04 543.375 449.447 517.158C469.598 508.693 490.127 504.683 510.724 504.683C524.432 504.683 538.14 506.671 550.615 510.303C569.156 478.054 597.395 450.672 631.632 434.119C653.394 423.632 675.944 418.8 698.529 418.8C775.501 418.8 837.6 479.22 839.588 556.226V742.798C839.588 858.873 757.372 981.392 643.729 1035.78C642.53 1036.19 640.097 1037.39 640.097 1037.39C605.414 1053.19 569.533 1061.65 534.508 1061.65H534.542Z" fill="#F286C0"/>
<path d="M875.915 909.732C796.132 909.732 733.656 847.667 733.656 768.261V672.337C713.505 665.071 694.964 653.385 680.056 638.066C654.662 611.883 640.953 576.789 640.953 539.742C640.953 475.69 681.633 412.014 739.688 384.974C796.132 358.791 871.083 324.932 948.056 297.138C964.163 291.483 981.127 288.262 997.611 288.262C1076.61 288.262 1138.67 351.526 1138.67 432.166C1138.67 493.442 1100.39 552.697 1045.97 580.045V738C1045.97 804.108 1001.24 869.395 937.157 896.811C917.383 905.688 896.82 909.732 875.881 909.732H875.915Z" fill="#F286C0"/>
<path d="M1082.64 834.747C1004.47 834.747 943.977 774.327 941.578 694.099V417.635C943.566 341.45 991.134 280.619 1060.05 262.867C1122.53 246.76 1180.55 237.472 1237.75 234.251H1245.84C1327.64 234.251 1394.57 302.347 1394.57 385.763C1394.57 415.99 1385.28 444.983 1369.18 469.178C1375.62 486.074 1379.25 504.614 1379.25 523.978C1379.25 540.085 1376.82 555.815 1371.99 570.312C1388.95 594.884 1398.58 624.323 1398.58 656.572C1398.58 736.766 1334.12 805.308 1254.68 808.906C1212.76 810.894 1169.24 817.783 1121.3 830.257C1108.48 833.17 1095.56 834.781 1082.64 834.781V834.747Z" fill="#F286C0"/>
<path d="M1269.62 234.388C1315.2 201.18 1337.41 150.082 1348 103.884C1366.68 147.477 1397.55 193.777 1448.31 218.349C1402.73 251.558 1380.52 302.622 1369.93 348.853C1351.25 305.295 1320.37 258.96 1269.62 234.388Z" fill="black" stroke="#F286C0" stroke-width="38.4178" stroke-linejoin="round"/>
<path d="M202.28 1124.85C159.912 1162.07 142.449 1214.98 136.109 1261.95C113.54 1220.24 78.5752 1176.94 25.7935 1157.09C68.1612 1119.87 85.6275 1067 91.9642 1019.99C114.53 1061.67 149.498 1105 202.28 1124.85Z" fill="black" stroke="#F286C0" stroke-width="38.4178" stroke-linejoin="round"/>
<path d="M1407.25 101.245C1464.04 111.595 1468.77 192.166 1468.77 192.166H1468.8C1468.8 192.166 1459.17 112.075 1513.22 91.752C1456.43 81.4021 1451.7 0.831055 1451.7 0.831055H1451.67C1451.67 0.831055 1461.3 80.9566 1407.25 101.245Z" fill="#F286C0"/>
<path d="M114.037 893.248C114.037 789.407 181.106 724.6 279.361 701.81C359.932 682.79 411.612 697.903 429.33 758.803C405.717 774.739 382.139 790.023 358.526 804.554C346.874 769.461 319.389 757.74 278.881 767.096C224.835 779.399 191.318 822.238 191.318 888.587C191.318 954.044 224.835 991.777 279.326 979.371C319.389 970.083 346.84 940.85 358.492 898.628C381.762 898.32 405.066 897.257 428.336 895.612C410.653 968.781 359.863 1025.5 279.772 1044.49C181.037 1067.45 113.969 995.718 113.969 893.248H114.037Z" fill="black"/>
<path d="M468.468 857.366V647.799C493.451 637.826 518.469 627.27 543.453 616.304C543.453 682.138 543.453 747.938 543.453 813.773C543.453 856.132 565.797 872.548 604.935 854.59C643.592 836.803 665.492 800.339 665.492 757.98V560.511C690.475 548.79 715.493 537.001 740.477 525.314V734.881C740.477 810.62 689.721 885.674 604.935 924.914C519.703 964.188 468.468 933.207 468.468 857.366Z" fill="black"/>
<path d="M864.777 534.739C835.441 547.351 806.105 560.579 776.77 574.082V508.419C859.671 470.207 942.573 434.394 1025.47 408.108V473.771C996.138 483.058 966.802 493.579 937.466 504.957V767.61C913.237 777 889.041 786.973 864.812 797.392V534.739H864.777Z" fill="black"/>
<path d="M1061.77 397.244C1132.4 377.332 1203.03 365.132 1273.66 365.029C1273.66 385.66 1273.66 406.325 1273.66 426.956C1227.26 427.025 1180.82 432.337 1134.42 441.59V501.667C1170.58 494.436 1206.77 489.638 1242.92 487.822V549.749C1206.77 551.566 1170.58 556.364 1134.42 563.595V646.017C1181.13 636.695 1227.88 631.383 1274.59 631.383V693.311C1203.65 693.311 1132.71 705.545 1061.77 725.525V397.175V397.244Z" fill="black"/>
<path d="M114.037 893.248C114.037 789.407 181.106 724.6 279.361 701.81C359.932 682.79 411.612 697.903 429.33 758.803C405.717 774.739 382.139 790.023 358.526 804.554C346.874 769.461 319.389 757.74 278.881 767.096C224.835 779.399 191.318 822.238 191.318 888.587C191.318 954.044 224.835 991.777 279.326 979.371C319.389 970.083 346.84 940.85 358.492 898.628C381.762 898.32 405.066 897.257 428.336 895.612C410.653 968.781 359.863 1025.5 279.772 1044.49C181.037 1067.45 113.969 995.718 113.969 893.248H114.037Z" fill="#F286C0"/>
<path d="M468.468 857.366V647.799C493.451 637.826 518.469 627.27 543.453 616.304C543.453 682.138 543.453 747.938 543.453 813.773C543.453 856.132 565.797 872.548 604.935 854.59C643.592 836.803 665.492 800.339 665.492 757.98V560.511C690.475 548.79 715.493 537.001 740.477 525.314V734.881C740.477 810.62 689.721 885.674 604.935 924.914C519.703 964.188 468.468 933.207 468.468 857.366Z" fill="#F286C0"/>
<path d="M864.777 534.739C835.441 547.351 806.105 560.579 776.77 574.082V508.419C859.671 470.207 942.573 434.394 1025.47 408.108V473.771C996.138 483.058 966.802 493.579 937.466 504.957V767.61C913.237 777 889.041 786.973 864.812 797.392V534.739H864.777Z" fill="#F286C0"/>
<path d="M1061.77 397.244C1132.4 377.332 1203.03 365.132 1273.66 365.029C1273.66 385.66 1273.66 406.325 1273.66 426.956C1227.26 427.025 1180.82 432.337 1134.42 441.59V501.667C1170.58 494.436 1206.77 489.638 1242.92 487.822V549.749C1206.77 551.566 1170.58 556.364 1134.42 563.595V646.017C1181.13 636.695 1227.88 631.383 1274.59 631.383V693.311C1203.65 693.311 1132.71 705.545 1061.77 725.525V397.175V397.244Z" fill="#F286C0"/>
<path d="M114.037 893.248C114.037 789.407 181.106 724.6 279.361 701.81C359.932 682.79 411.612 697.903 429.33 758.803C405.717 774.739 382.139 790.023 358.526 804.554C346.874 769.461 319.389 757.74 278.881 767.096C224.835 779.399 191.318 822.238 191.318 888.587C191.318 954.044 224.835 991.777 279.326 979.371C319.389 970.083 346.84 940.85 358.492 898.628C381.762 898.32 405.066 897.257 428.336 895.612C410.653 968.781 359.863 1025.5 279.772 1044.49C181.037 1067.45 113.969 995.718 113.969 893.248H114.037Z" stroke="#F286C0" stroke-width="102.813"/>
<path d="M468.468 857.366V647.799C493.451 637.826 518.469 627.27 543.453 616.304C543.453 682.138 543.453 747.938 543.453 813.773C543.453 856.132 565.797 872.548 604.935 854.59C643.592 836.803 665.492 800.339 665.492 757.98V560.511C690.475 548.79 715.493 537.001 740.477 525.314V734.881C740.477 810.62 689.721 885.674 604.935 924.914C519.703 964.188 468.468 933.207 468.468 857.366Z" stroke="#F286C0" stroke-width="102.813"/>
<path d="M864.777 534.739C835.441 547.351 806.105 560.579 776.77 574.082V508.419C859.671 470.207 942.573 434.394 1025.47 408.108V473.771C996.138 483.058 966.802 493.579 937.466 504.957V767.61C913.237 777 889.041 786.973 864.812 797.392V534.739H864.777Z" stroke="#F286C0" stroke-width="102.813"/>
<path d="M1061.77 397.244C1132.4 377.332 1203.03 365.132 1273.66 365.029C1273.66 385.66 1273.66 406.325 1273.66 426.956C1227.26 427.025 1180.82 432.337 1134.42 441.59V501.667C1170.58 494.436 1206.77 489.638 1242.92 487.822V549.749C1206.77 551.566 1170.58 556.364 1134.42 563.595V646.017C1181.13 636.695 1227.88 631.383 1274.59 631.383V693.311C1203.65 693.311 1132.71 705.545 1061.77 725.525V397.175V397.244Z" stroke="#F286C0" stroke-width="102.813"/>
<path d="M114.037 893.248C113.969 783.338 175.358 701.262 271.466 689.763C324.093 683.467 386.218 702.592 417.545 757.933C394.862 776.08 384.882 784.245 362.185 802.075C348.053 764.284 309.676 749.79 271.466 758.171C233.256 766.553 185.672 812.847 185.672 879.196C185.672 944.653 228.262 991.777 282.753 979.37C322.816 970.083 353.794 944.897 362.185 901.004C385.455 900.696 405.066 897.257 428.336 895.612C428.336 968.962 365.612 1033.1 293.947 1050.09C183.525 1076.27 114.037 995.718 114.037 893.248Z" fill="black"/>
<path d="M468.468 857.365V647.798C493.451 637.826 525.323 623.843 550.307 612.876C550.307 678.711 550.307 744.511 550.307 810.346C550.307 852.705 590.934 856.503 612.305 846.67C633.677 836.837 662.064 806.785 662.064 757.98V560.51C687.048 548.79 715.493 537 740.477 525.314V734.881C740.477 810.62 719.474 883.988 622.755 922.366C541.492 954.611 468.468 933.207 468.468 857.365Z" fill="black"/>
<path d="M861.35 538.166C832.014 550.778 806.105 564.006 776.77 577.509V508.419C859.671 470.207 942.573 434.394 1025.47 408.108V477.198C996.138 486.485 970.229 497.007 940.893 508.385V767.61C916.664 777 885.614 786.973 861.385 797.392V534.739L861.35 538.166Z" fill="black"/>
<path d="M1061.77 397.243C1132.4 377.332 1203.03 365.131 1273.66 365.029C1273.66 385.66 1273.66 409.752 1273.66 430.383C1227.26 430.452 1184.25 435.764 1137.85 445.017V501.667C1174 494.436 1206.77 489.638 1242.92 487.821V553.176C1206.77 554.993 1174 559.791 1137.85 567.022V642.589C1184.56 633.268 1227.88 627.956 1274.59 627.956V693.31C1203.65 693.31 1132.71 705.545 1061.77 725.525V397.175V397.243Z" fill="black"/>
</svg>
