<?xml version="1.0" encoding="utf-8"?>
<!-- Generator: Adobe Illustrator 27.1.1, SVG Export Plug-In . SVG Version: 6.00 Build 0)  -->
<svg version="1.1" xmlns="http://www.w3.org/2000/svg" xmlns:xlink="http://www.w3.org/1999/xlink" x="0px" y="0px"
	 viewBox="0 0 1712.8 1095" style="enable-background:new 0 0 1712.8 1095;" xml:space="preserve">
<style type="text/css">
	.st0{fill:#FFFFFF;}
	.st1{fill:#FF004F;}
	.st2{display:none;}
	.st3{display:inline;opacity:0.6;}
	.st4{opacity:0.6;}
</style>
<g id="Sticker">
	<g>
		<path class="st0" d="M1040.1,275.4c-0.1,0.1-0.1,0.3-0.2,0.4c-10.5,19.1,3.2,42.5,25,43l19.2,0.4l33.7-60.5
			c11.1-19.9,10.3-44.5-2.2-63.7c-6.4-9.8-15.3-17.4-25.6-22.2c-0.5,9.3-3,18.5-7.7,26.9L1040.1,275.4z"/>
		<path class="st0" d="M1303.5,565.3c-0.1,0.1-0.1,0.3-0.2,0.4c-10.5,19.1,3.2,42.5,25,43l19.2,0.4l33.7-60.5
			c11.1-19.9,10.3-44.5-2.2-63.7c-6.4-9.8-15.3-17.4-25.6-22.2c-0.5,9.3-3,18.5-7.7,26.9L1303.5,565.3z"/>
		<path class="st0" d="M543.3,723.8l-56.7,0.1c-9.7,0-18.9-2.5-26.9-7l5.6,19.4c6.7,23.7,28.3,40.1,52.9,40.1l56.7-0.1
			c6.1,0,12,1.3,17.4,3.6l-7-24.5C579.9,736.6,562.8,723.8,543.3,723.8z"/>
		<path class="st0" d="M1674.3,730.2c-8.1-12.5-19.5-22.1-32.6-28.2c-0.6,11.8-3.9,23.6-9.8,34.3l-57.6,103.6
			c-6.6,11.9-10.1,25.3-10.1,38.9v38.8c0,43.7-35.4,79.1-79.1,79.1H758.2c-13.9,0-27.1-3.6-38.6-10.1l8,27.8
			c9.6,33.9,40.5,57.4,75.8,57.4h726.8c43.7,0,79.1-35.4,79.1-79.1v-38.8c0-13.6,3.5-27,10.1-38.9l57.6-103.6
			C1691.2,785.9,1690.3,754.7,1674.3,730.2z"/>
		<path class="st0" d="M256.9,428.1l-56.7,0.1c-9.7,0-18.9-2.5-26.9-7l5.6,19.4c6.7,23.7,28.3,40.1,52.9,40.1l56.7-0.1
			c6.1,0,12,1.3,17.4,3.6l-7-24.5C293.5,440.9,276.4,428,256.9,428.1z"/>
		<path class="st1" d="M1662.1,651.4c-15.8-24.4-43.4-38.7-72.6-38.7l-208.6-4.6l-26.3-0.6c-29.9-0.7-48.7-32.8-34.3-59
			c0.1-0.2,0.2-0.4,0.3-0.5l57.8-103.9c6.4-11.5,9.9-24.2,10.6-36.9c0.9-17.5-3.6-35.2-13.5-50.5c-15.8-24.4-43.4-38.7-72.6-38.7
			c0,0-108.1-0.1-184.1-0.2c-13.3,0-25.6,0-36.2-0.1c-5.1,0-10-2.3-14.4-5.9c-16.1-12.8-20.1-35.7-10.1-53.6l60.6-108.9
			c6.4-11.5,9.9-24.2,10.6-36.9c0.9-17.5-3.6-35.2-13.5-50.5c-15.8-24.4-43.4-38.7-72.6-38.7H166.1h-55.4C84.1,23.4,59,35.8,43,57
			c-16,21.2-21.2,48.7-14,74.3l66.9,236.9c6.3,22.2,21.1,40.3,40.3,51c12.4,6.9,26.5,10.8,41.4,10.8l59-0.2
			c30.9-0.1,58.1,20.3,66.6,50l10.6,36.9l41.8,146.1c6.3,22.2,21,40.2,40.1,50.9c12.4,7,26.6,10.9,41.5,10.9l87.5-0.2
			c30-0.1,56.4,19.8,64.6,48.6l10.8,37.8l42.1,146.7c6.3,22.2,21,40.2,40.1,50.9c12.4,7,26.6,10.9,41.5,10.9h783.1
			c47.1,0,85.2-38.2,85.2-85.2v-41.8c0-14.7,3.7-29.1,10.9-41.9l62.1-111.6c6.4-11.5,9.9-24.2,10.6-36.9
			C1676.5,684.4,1672,666.7,1662.1,651.4z"/>
		<g>
			<path class="st0" d="M110.7,108.2h55.4l54.4,206.6l54.4-206.6h55.4l-66.5,236.9h-86.3L110.7,108.2z"/>
			<path class="st0" d="M353.2,108.2h52.4v236.9h-52.4V108.2z"/>
			<path class="st0" d="M444.6,108.2H539c50.1,0,74.6,21.2,74.6,56.8c0,20.8-12.4,39.3-37.3,45.7c33.9,4,56.1,27.9,56.1,62.8
				c0,44.3-32.3,71.6-90.4,71.6h-97.4V108.2z M531.6,199.9c19.5,0,30.6-11.1,30.6-26.5c0-16.1-11.1-26.9-30.6-26.9H497v53.4H531.6z
				 M539.3,304.4c24.9,0,39.3-11.4,39.3-33.6c0-22.2-14.4-33.6-40.7-33.6h-41v67.2H539.3z"/>
			<path class="st0" d="M660,108.2h152.9v44.7H712.4v43.3h78.3v44.7h-78.3v59.5h101.1v44.7H660V108.2z"/>
			<path class="st0" d="M825.2,108.2h57.4l52.4,103.5l52.4-103.5h57.1l-74.6,134H961v102.8h-52.1V242.3h-8.7L825.2,108.2z"/>
		</g>
		<g>
			<path d="M370.3,402.9h55.4l54.4,206.6l54.4-206.6H590l-66.5,236.9h-86.3L370.3,402.9z"/>
			<path d="M612.8,402.9h52.4v236.9h-52.4V402.9z"/>
			<path d="M704.2,402.9h94.4c50.1,0,74.6,21.2,74.6,56.8c0,20.8-12.4,39.3-37.3,45.7c33.9,4,56.1,27.9,56.1,62.8
				c0,44.3-32.3,71.6-90.4,71.6h-97.4V402.9z M791.2,494.6c19.5,0,30.6-11.1,30.6-26.5c0-16.1-11.1-26.9-30.6-26.9h-34.6v53.4H791.2
				z M798.9,599.1c24.9,0,39.3-11.4,39.3-33.6c0-22.2-14.4-33.6-40.7-33.6h-41v67.2H798.9z"/>
			<path d="M919.6,402.9h152.9v44.7H972v43.3h78.3v44.7H972v59.5h101.1v44.7H919.6V402.9z"/>
			<path d="M1084.8,402.9h57.4l52.4,103.5l52.4-103.5h57.1l-74.6,134h-9.1v102.8h-52.1V537h-8.7L1084.8,402.9z"/>
		</g>
		<g>
			<path class="st0" d="M656.9,697.6h55.4l54.4,206.6l54.4-206.6h55.4l-66.5,236.9h-86.3L656.9,697.6z"/>
			<path class="st0" d="M899.5,697.6h52.4v236.9h-52.4V697.6z"/>
			<path class="st0" d="M990.9,697.6h94.4c50.1,0,74.6,21.2,74.6,56.8c0,20.8-12.4,39.3-37.3,45.7c33.9,4,56.1,27.9,56.1,62.8
				c0,44.3-32.3,71.6-90.4,71.6h-97.4V697.6z M1077.9,789.3c19.5,0,30.6-11.1,30.6-26.5c0-16.1-11.1-26.9-30.6-26.9h-34.6v53.4
				H1077.9z M1085.6,893.8c24.9,0,39.3-11.4,39.3-33.6c0-22.2-14.4-33.6-40.7-33.6h-41v67.2H1085.6z"/>
			<path class="st0" d="M1206.2,697.6h152.9v44.7h-100.5v43.3h78.3v44.7h-78.3v59.5h101.1v44.7h-153.5V697.6z"/>
			<path class="st0" d="M1371.5,697.6h57.4l52.4,103.5l52.4-103.5h57.1l-74.6,134h-9.1v102.8h-52.1V831.7h-8.7L1371.5,697.6z"/>
		</g>
	</g>
</g>
<g id="Texture" class="st2">
	<g class="st3">
		<defs>
			<path id="SVGID_1_" class="st4" d="M1674.3,730.2c-1.1-1.6-2.2-3.2-3.3-4.7c2.6-7.6,4.2-15.6,4.6-23.5
				c0.9-17.5-3.6-35.2-13.5-50.5c-15.8-24.4-43.4-38.7-72.6-38.7l-208.6-4.6l-26.3-0.6c-2,0-4-0.2-5.9-0.6l32.5-58.5
				c11.1-19.9,10.3-44.5-2.2-63.7c-4-6.1-8.9-11.3-14.6-15.6l13.9-25.1c6.4-11.5,9.9-24.2,10.6-36.9c0.9-17.5-3.6-35.2-13.5-50.5
				c-15.8-24.4-43.4-38.7-72.6-38.7c0,0-108.1-0.1-184.1-0.2c-12.4,0-23.9,0-33.9-0.1l32.9-59.1c11.1-19.9,10.3-44.5-2.2-63.7
				c-3.8-5.8-8.5-10.8-13.8-15l17-30.5c6.4-11.5,9.9-24.2,10.6-36.9c0.9-17.5-3.6-35.2-13.5-50.5c-15.8-24.4-43.4-38.7-72.6-38.7
				H166.1h-55.4C84.1,23.4,59,35.8,43,57c-16,21.2-21.2,48.7-14,74.3l66.9,236.9c6.3,22.2,21.1,40.3,40.3,51
				c11.9,6.6,25.4,10.5,39.7,10.8l3.1,10.7c6.7,23.7,28.3,40.1,52.9,40.1l56.7-0.1c5.4,0,10.7,1,15.6,2.9l9.5,33.3l41.8,146.1
				c6.3,22.2,21,40.2,40.1,50.9c12.4,7,26.6,10.9,41.5,10.9l24.8,0l3.4,11.7c6.7,23.7,28.3,40.1,52.9,40.1l56.7-0.1
				c5.7,0,11.1,1.1,16.1,3.1l9,31.5l42.1,146.7c6.3,22.2,21,40.2,40.1,50.9c12.4,7,26.6,10.9,41.5,10.9h5.5
				c11.1,31.2,40.7,52.3,74.2,52.3h726.8c43.7,0,79.1-35.4,79.1-79.1v-38.8c0-13.6,3.5-27,10.1-38.9l57.6-103.6
				C1691.2,785.9,1690.3,754.7,1674.3,730.2z"/>
		</defs>
		<clipPath id="SVGID_00000032612916649613551570000003754696553591882405_">
			<use xlink:href="#SVGID_1_"  style="overflow:visible;"/>
		</clipPath>
		<g transform="matrix(1 0 0 1 0 0)" style="clip-path:url(#SVGID_00000032612916649613551570000003754696553591882405_);">
			
				<image style="overflow:visible;" width="6240" height="3934" xlink:href="F5149C9C8ED8BE50.png"  transform="matrix(0.2663 0 0 0.2663 25.6047 23.1792)">
			</image>
		</g>
	</g>
</g>
</svg>
