<svg width="1872" height="941" viewBox="0 0 1872 941" fill="none" xmlns="http://www.w3.org/2000/svg">
<path d="M1567.43 896.396C1550.88 896.396 1534.74 892.906 1519.58 886.042L1309.37 790.768C1300.92 786.929 1293.05 782.198 1285.84 776.537C1275.72 779.367 1265.28 780.802 1254.62 780.802C1246.9 780.802 1239.15 780.027 1231.59 778.475L1081.95 748.191C1032.66 738.225 995.515 697.471 989.698 647.992L865.651 799.26C840.524 829.893 803.57 848.778 764.289 851.027C761.575 851.182 758.899 851.259 756.223 851.259C719.347 851.259 684.37 837.028 657.653 811.164L587.855 743.538C577.928 751.487 566.721 757.807 554.584 762.15L327.973 843.62C315.293 848.196 302.07 850.484 288.692 850.484C239.872 850.484 195.977 819.618 179.458 773.667L51.5334 417.813C41.0249 388.653 42.5372 357.127 55.7601 329.092C68.9829 301.056 92.3266 279.806 121.487 269.337L209.82 237.579C222.5 233.003 235.723 230.715 249.101 230.715C285.357 230.715 318.938 247.777 340.575 275.386C351.976 233.662 371.829 194.924 399.051 161.692C450.934 98.4475 522.593 62.1913 600.806 59.5932C603.714 59.5157 606.584 59.4381 609.492 59.4381C647.687 59.4381 685.029 67.5812 720.471 83.6348C756.495 62.0749 795.543 49.4337 836.608 46.0989C843.704 45.5172 850.916 45.207 858.012 45.207C928.198 45.207 995.902 73.359 1048.68 124.505C1051.55 127.259 1054.34 130.128 1057.09 132.998C1064.73 131.447 1072.49 130.671 1080.32 130.671C1088.15 130.671 1095.79 131.447 1103.35 132.959L1200.33 152.58C1228.87 158.358 1254.19 174.877 1271.14 198.104C1289.13 187.246 1309.8 181.43 1331.09 181.43C1338.81 181.43 1346.56 182.205 1354.16 183.756L1450.64 203.3C1480.96 209.427 1507.06 227.031 1524 252.352C1532.81 254.059 1541.41 256.812 1549.71 260.573L1759.03 355.421C1787.26 368.217 1808.82 391.251 1819.75 420.256C1830.65 449.261 1829.64 480.786 1816.85 509.055L1786.33 576.41C1774.11 603.36 1752.17 624.454 1725.14 635.699L1707.61 674.36C1717.62 702.706 1716.3 733.339 1703.85 760.832L1673.33 828.187C1654.56 869.601 1613.03 896.357 1567.59 896.357L1567.43 896.396Z" fill="#F4F000"/>
<path d="M857.981 70.4505C921.73 70.4505 983.075 96.1207 1031.08 142.653C1037.32 148.702 1043.26 155.023 1048.84 161.537C1058.88 157.815 1069.55 155.914 1080.29 155.914C1086.3 155.914 1092.31 156.496 1098.32 157.737L1195.3 177.358C1223.96 183.175 1247.26 202.098 1259.28 227.264C1260.56 229.939 1263.24 231.452 1265.95 231.452C1267.66 231.452 1269.4 230.87 1270.8 229.59C1287.24 215.01 1308.68 206.673 1331.06 206.673C1337.03 206.673 1343.08 207.255 1349.13 208.496L1445.6 228.039C1472.75 233.546 1495.86 251.111 1508.46 275.696C1518.81 276.471 1529.25 279.031 1539.25 283.568L1748.57 378.454C1770.51 388.42 1787.61 406.645 1796.11 429.213C1804.6 451.781 1803.78 476.753 1793.82 498.701L1763.3 566.056C1752.02 590.99 1730.85 608.362 1706.49 615.613L1681.75 670.211C1681.21 671.413 1680.63 672.615 1680.05 673.778C1681.17 676.105 1682.18 678.509 1683.11 680.952C1691.6 703.52 1690.79 728.492 1680.82 750.44L1650.31 817.795C1635.11 851.337 1602.07 871.152 1567.48 871.152C1554.95 871.152 1542.2 868.554 1530.02 863.009L1319.81 767.734C1308.88 762.771 1299.38 755.907 1291.54 747.687C1280.07 752.805 1267.5 755.519 1254.67 755.519C1248.7 755.519 1242.65 754.938 1236.6 753.697L1086.96 723.412C1046.71 715.269 1016.93 681.107 1014.29 640.12L1011.96 603.553C1011.65 598.784 1007.7 595.798 1003.67 595.798C1001.38 595.798 999.051 596.729 997.345 598.823L846.193 783.167C826.184 807.597 796.403 823.844 762.862 825.744C760.651 825.86 758.441 825.938 756.231 825.938C725.209 825.938 696.398 813.452 675.226 792.939L587.552 707.94C577.005 721.745 562.657 732.331 546.1 738.303L319.488 819.773C309.329 823.418 298.936 825.163 288.738 825.163C251.512 825.163 216.575 802.09 203.235 765.02L75.2333 409.282C67.0902 386.597 68.2535 361.625 78.5294 339.833C88.8052 318.04 107.302 301.211 129.986 293.068L218.32 261.31C228.479 257.665 238.871 255.92 249.07 255.92C286.334 255.92 321.233 278.992 334.572 316.062L336.356 321.065C338.101 325.951 342.328 328.238 346.554 328.238C351.518 328.238 356.481 325.02 357.334 318.932C364.314 268.212 384.556 219.082 418.524 177.668C465.211 120.744 530.821 87.1245 601.589 84.7979C604.226 84.7204 606.824 84.6816 609.422 84.6816C645.252 84.6816 680.422 92.7471 713.111 108.064C715.593 109.227 718.229 109.809 720.866 109.809C724.201 109.809 727.536 108.878 730.483 107.095C763.443 86.7755 800.165 74.4445 838.631 71.3036C845.107 70.7607 851.544 70.5281 857.981 70.5281M857.981 0.652344C849.683 0.652344 841.268 1.00133 832.931 1.66054C792.526 4.95656 753.827 15.9304 717.57 34.3106C682.71 21.3979 646.415 14.8446 609.422 14.8446C606.048 14.8446 602.636 14.8834 599.301 14.9997C509.378 17.9468 423.836 61.1053 364.547 133.385C347.058 154.712 332.207 178.017 320.264 202.796C298.549 192.016 274.313 186.083 249.108 186.083C230.573 186.083 212.27 189.262 194.743 195.583L106.41 227.341C66.0432 241.844 33.7034 271.237 15.4396 310.052C-2.86305 348.868 -4.91822 392.491 9.58429 432.858L137.548 788.674C160.426 852.267 221.189 894.999 288.738 894.999C307.273 894.999 325.576 891.82 343.103 885.499L569.715 804.029C573.709 802.594 577.625 801.005 581.464 799.298L626.678 843.116C661.732 877.085 707.76 895.775 756.27 895.775C759.798 895.775 763.366 895.659 766.894 895.465C818.584 892.518 867.171 867.739 900.209 827.45L977.995 732.602C1001.03 762.383 1034.38 783.982 1073.15 791.853L1222.79 822.138C1233.3 824.271 1244 825.356 1254.71 825.356C1262.07 825.356 1269.36 824.852 1276.58 823.883C1281.23 826.597 1286.08 829.079 1291.04 831.328L1501.25 926.602C1522.27 936.142 1544.56 940.95 1567.52 940.95C1630.45 940.95 1687.92 903.918 1713.9 846.606L1744.42 779.251C1759 747.066 1762.57 711.779 1754.93 677.927L1759.11 668.66C1788.74 652.063 1812.63 626.315 1826.9 594.829L1857.41 527.473C1875.13 488.386 1876.57 444.724 1861.45 404.59C1846.32 364.417 1816.46 332.543 1777.38 314.822L1568.06 219.935C1562.21 217.259 1556.2 214.971 1550.11 213.033C1527.04 185.734 1495.35 166.811 1459.41 159.521L1362.93 139.977C1352.42 137.845 1341.68 136.759 1331.02 136.759C1314.19 136.759 1297.59 139.396 1281.85 144.475C1261.22 126.793 1236.21 114.307 1209.1 108.839L1112.12 89.2185C1101.65 87.0857 1090.91 86.0388 1080.25 86.0388C1077.81 86.0388 1075.4 86.0775 1073 86.1939C1012.89 30.9758 936.853 0.652344 857.981 0.652344Z" fill="#FE2C55"/>
<path d="M1567.43 882.823C1552.81 882.823 1538.58 879.721 1525.17 873.672L1314.96 778.398C1305.34 774.055 1296.58 768.316 1288.82 761.375C1277.85 765.291 1266.37 767.269 1254.62 767.269C1247.8 767.269 1240.97 766.571 1234.26 765.214L1084.62 734.929C1039.29 725.739 1005.6 687.117 1002.69 640.973L1000.9 612.937L855.181 790.651C832.458 818.377 799.033 835.438 763.552 837.455C761.109 837.61 758.705 837.649 756.262 837.649C722.953 837.649 691.272 824.775 667.153 801.392L588.281 724.925C577.579 735.782 564.55 744.119 550.047 749.315L323.436 830.785C312.229 834.818 300.558 836.873 288.769 836.873C245.65 836.873 206.912 809.613 192.332 769.014L64.3296 413.237C55.0619 387.489 56.3803 359.647 68.0522 334.869C79.724 310.091 100.314 291.362 126.101 282.094L214.434 250.336C225.641 246.303 237.313 244.248 249.101 244.248C292.221 244.248 330.959 271.508 345.539 312.107L346.275 314.124C354.186 260.806 376.017 211.171 409.52 170.301C458.883 110.119 526.975 75.6078 601.194 73.1648C603.947 73.0873 606.661 73.0485 609.414 73.0485C646.834 73.0485 683.362 81.2692 718.028 97.5166C718.92 97.9432 719.851 98.1371 720.859 98.1371C722.1 98.1371 723.302 97.7881 724.349 97.1676C759.403 75.569 797.52 62.9278 837.654 59.6705C844.402 59.1276 851.226 58.8562 857.935 58.8562C924.553 58.8562 988.923 85.6509 1039.14 134.355C1043.71 138.775 1048.17 143.428 1052.48 148.159C1061.51 145.6 1070.82 144.32 1080.24 144.32C1087.07 144.32 1093.89 145.018 1100.56 146.375L1197.54 165.996C1227.13 171.968 1252.8 191.007 1267.18 217.376C1285.29 202.951 1307.75 195.079 1330.97 195.079C1337.8 195.079 1344.62 195.777 1351.33 197.134L1447.81 216.678C1476.46 222.494 1500.85 239.866 1515.63 264.8C1525.4 266.157 1534.9 268.91 1543.97 273.02L1753.29 367.907C1778.22 379.191 1797.26 399.549 1806.92 425.18C1816.57 450.812 1815.64 478.653 1804.36 503.587L1773.84 570.942C1762.32 596.341 1741.04 615.846 1714.94 625.152L1692.8 674.011C1693.19 674.98 1693.57 675.949 1693.96 676.919C1703.62 702.55 1702.69 730.392 1691.4 755.326L1660.88 822.681C1644.33 859.247 1607.64 882.901 1567.47 882.901L1567.43 882.823Z" fill="#F4F000"/>
<path d="M857.973 70.4506C921.722 70.4506 983.067 96.1208 1031.07 142.653C1037.32 148.702 1043.25 155.023 1048.83 161.537C1058.88 157.815 1069.54 155.915 1080.28 155.915C1086.29 155.915 1092.3 156.496 1098.31 157.737L1195.29 177.358C1223.95 183.175 1247.25 202.098 1259.27 227.264C1260.55 229.939 1263.23 231.452 1265.94 231.452C1267.65 231.452 1269.39 230.87 1270.79 229.59C1287.23 215.01 1308.68 206.673 1331.05 206.673C1337.02 206.673 1343.07 207.255 1349.12 208.496L1445.6 228.039C1472.74 233.546 1495.85 251.112 1508.45 275.696C1518.81 276.472 1529.24 279.031 1539.24 283.568L1748.56 378.454C1770.51 388.42 1787.61 406.645 1796.1 429.213C1804.59 451.781 1803.78 476.753 1793.81 498.701L1763.29 566.056C1751.97 590.99 1730.84 608.362 1706.49 615.613L1681.75 670.211C1681.2 671.413 1680.62 672.615 1680.04 673.778C1681.17 676.105 1682.17 678.509 1683.1 680.952C1691.6 703.52 1690.78 728.492 1680.82 750.479L1650.3 817.834C1635.1 851.376 1602.06 871.191 1567.47 871.191C1554.95 871.191 1542.19 868.593 1530.01 863.047L1319.8 767.773C1308.87 762.81 1299.37 755.946 1291.54 747.725C1280.06 752.844 1267.53 755.558 1254.66 755.558C1248.69 755.558 1242.64 754.977 1236.59 753.736L1086.95 723.451C1046.7 715.308 1016.92 681.146 1014.28 640.159L1011.96 603.592C1011.65 598.823 1007.69 595.837 1003.66 595.837C1001.37 595.837 999.043 596.768 997.337 598.861L846.185 783.206C826.177 807.635 796.396 823.883 762.854 825.783C760.644 825.899 758.434 825.977 756.223 825.977C725.202 825.977 696.391 813.491 675.219 792.978L587.544 707.979C576.997 721.784 562.65 732.37 546.092 738.341L319.481 819.811C309.321 823.456 298.929 825.201 288.731 825.201C251.505 825.201 216.567 802.129 203.228 765.059L75.2647 409.282C67.1216 386.597 68.2849 361.625 78.5607 339.833C88.8366 318.04 107.333 301.211 130.017 293.068L218.351 261.31C228.51 257.665 238.903 255.92 249.101 255.92C286.365 255.92 321.264 278.992 334.604 316.063L336.387 321.065C338.132 325.951 342.359 328.238 346.586 328.238C351.549 328.238 356.513 325.02 357.366 318.932C364.345 268.212 384.587 219.082 418.555 177.668C465.243 120.744 530.853 87.1246 601.62 84.798C604.257 84.7204 606.855 84.6817 609.453 84.6817C645.283 84.6817 680.453 92.7472 713.142 108.064C715.624 109.227 718.261 109.809 720.898 109.809C724.232 109.809 727.567 108.878 730.514 107.095C763.475 86.7756 800.196 74.4446 838.663 71.3037C845.138 70.7608 851.575 70.5281 858.012 70.5281M858.012 47.2621C850.955 47.2621 843.82 47.5723 836.763 48.1152C795.659 51.45 756.572 64.1687 720.587 85.9225C685.107 69.7138 647.726 61.4544 609.453 61.4544C606.584 61.4544 603.714 61.4932 600.845 61.6095C523.214 64.1688 452.058 100.154 400.524 162.972C372.644 196.979 352.519 236.842 341.39 279.768C320.256 250.763 286.094 232.693 249.101 232.693C235.956 232.693 222.965 234.98 210.479 239.44L122.146 271.198C93.451 281.512 70.4952 302.374 57.5049 329.945C44.5147 357.515 43.0412 388.498 53.3558 417.192L181.319 773.008C197.567 818.183 240.725 848.545 288.731 848.545C301.876 848.545 314.866 846.257 327.352 841.798L553.964 760.328C566.45 755.83 577.928 749.276 588.01 740.939L659.01 809.768C685.339 835.283 719.851 849.321 756.223 849.321C758.86 849.321 761.536 849.243 764.173 849.088C802.91 846.878 839.361 828.265 864.139 798.019L991.133 643.145C995.011 693.865 1032.31 736.209 1082.3 746.329L1231.94 776.614C1239.38 778.126 1247.02 778.902 1254.62 778.902C1265.4 778.902 1275.99 777.39 1286.22 774.443C1293.51 780.22 1301.54 785.106 1310.15 789.023L1520.36 884.297C1535.29 891.083 1551.11 894.495 1567.43 894.495C1612.14 894.495 1652.97 868.166 1671.43 827.45L1701.95 760.095C1714.32 732.835 1715.52 702.434 1705.4 674.36L1723.59 634.265C1750.5 623.291 1772.37 602.429 1784.47 575.673L1814.98 508.318C1827.59 480.554 1828.59 449.532 1817.85 421.031C1807.11 392.492 1785.9 369.846 1758.14 357.282L1548.82 262.396C1540.41 258.595 1531.68 255.842 1522.76 254.136C1506.13 228.892 1480.26 211.327 1450.17 205.239L1353.7 185.695C1346.25 184.183 1338.61 183.407 1331.01 183.407C1309.49 183.407 1288.59 189.495 1270.56 200.74C1253.88 177.125 1228.52 160.335 1199.87 154.519L1102.89 134.898C1095.44 133.385 1087.84 132.61 1080.24 132.61C1072.18 132.61 1064.19 133.463 1056.36 135.13C1053.37 131.989 1050.34 128.887 1047.24 125.901C994.855 75.1038 927.617 47.1458 857.935 47.1458L858.012 47.2621Z" fill="black"/>
<path d="M1565.46 806.784C1563.79 806.784 1562.08 806.435 1560.45 805.659L1343.11 702.009C1340.32 700.691 1338.19 698.286 1337.14 695.378C1336.09 692.47 1336.29 689.251 1337.6 686.498L1497.48 351.196C1499.46 347.008 1503.65 344.565 1507.99 344.565C1509.66 344.565 1511.36 344.914 1512.99 345.689L1729.4 448.874C1732.23 450.232 1734.41 452.636 1735.41 455.622C1736.42 458.569 1736.19 461.826 1734.79 464.618L1701.45 530.926C1699.39 534.998 1695.32 537.324 1691.05 537.324C1689.39 537.324 1687.68 536.975 1686.05 536.2L1562.12 476.988L1545.52 514.058L1638.59 558.535C1644.37 561.288 1646.85 568.229 1644.06 574.046L1613.89 637.291C1612.57 640.083 1610.17 642.215 1607.26 643.262C1606.02 643.728 1604.7 643.921 1603.38 643.921C1601.67 643.921 1599.93 643.534 1598.38 642.797L1505.82 598.553L1480.77 653.965L1606.13 713.836C1608.96 715.193 1611.13 717.597 1612.14 720.583C1613.15 723.53 1612.92 726.787 1611.52 729.579L1575.85 800.386C1573.79 804.418 1569.72 806.784 1565.46 806.784Z" fill="#FE2C55"/>
<path d="M1507.99 356.197L1724.4 459.382L1691.05 525.691L1556.38 461.36L1530.29 519.68L1633.59 569.043L1603.42 632.288L1500.12 582.925L1465.49 659.548L1601.13 724.344L1565.46 795.15L1348.11 691.5L1507.99 356.197ZM1507.99 332.931C1499.3 332.931 1490.97 337.817 1486.97 346.193L1327.1 681.496C1324.46 687.08 1324.11 693.478 1326.16 699.294C1328.22 705.111 1332.52 709.88 1338.07 712.517L1555.41 816.167C1558.63 817.718 1562.04 818.455 1565.42 818.455C1573.95 818.455 1582.13 813.763 1586.2 805.659L1621.88 734.852C1624.71 729.269 1625.13 722.793 1623.12 716.86C1621.1 710.927 1616.76 706.08 1611.14 703.405L1496.05 648.419L1511.52 614.218L1593.38 653.344C1596.56 654.856 1599.97 655.632 1603.42 655.632C1606.06 655.632 1608.65 655.205 1611.17 654.313C1616.99 652.258 1621.76 647.954 1624.4 642.409L1654.57 579.164C1660.11 567.57 1655.19 553.687 1643.59 548.142L1560.76 508.551L1567.86 492.73L1681.01 546.785C1684.23 548.336 1687.64 549.073 1691.02 549.073C1699.55 549.073 1707.73 544.381 1711.8 536.238L1745.15 469.93C1747.94 464.346 1748.4 457.87 1746.39 451.937C1744.37 446.004 1740.03 441.157 1734.41 438.482L1517.99 335.297C1514.77 333.746 1511.36 333.009 1507.99 333.009V332.931Z" fill="black"/>
<path d="M282.837 748.347C281.131 748.347 279.425 747.959 277.874 747.222C275.082 745.904 272.949 743.538 271.902 740.63L140.371 372.677C138.2 366.628 141.379 359.959 147.429 357.826L228.86 328.705C230.139 328.239 231.458 328.007 232.776 328.007C234.482 328.007 236.189 328.394 237.74 329.131C240.532 330.45 242.664 332.815 243.711 335.723L345.035 619.142L483.352 569.702C484.631 569.237 485.95 569.004 487.268 569.004C492.038 569.004 496.536 571.951 498.203 576.721L524.494 650.319C525.541 653.227 525.386 656.407 524.067 659.199C522.749 661.991 520.383 664.123 517.475 665.17L286.753 747.649C285.474 748.114 284.155 748.308 282.837 748.308V748.347Z" fill="#FE2C55"/>
<path d="M232.737 339.639L337.978 634.032L487.268 580.675L513.559 654.274L282.876 736.752L151.345 368.76L232.776 339.639M232.776 316.373C230.139 316.373 227.503 316.838 224.943 317.73L143.512 346.852C131.414 351.195 125.093 364.495 129.436 376.593L260.967 744.585C263.061 750.401 267.326 755.132 272.91 757.769C276.051 759.242 279.463 760.018 282.876 760.018C285.513 760.018 288.188 759.553 290.709 758.661L521.392 676.183C533.49 671.84 539.811 658.539 535.468 646.441L509.177 572.843C507.083 567.026 502.818 562.295 497.234 559.658C494.093 558.185 490.68 557.409 487.268 557.409C484.631 557.409 481.994 557.875 479.435 558.767L352.054 604.29L254.646 331.806C252.552 325.99 248.287 321.259 242.703 318.622C239.562 317.149 236.15 316.373 232.737 316.373H232.776Z" fill="black"/>
<path d="M1252.66 666.11C1251.88 666.123 1251.07 666.059 1250.29 665.916L1117 640.371C1111.91 639.408 1108.03 635.128 1107.6 629.938L1074.45 244.523C1074.12 240.883 1075.53 237.331 1078.25 234.882C1080.35 232.986 1083.04 231.933 1085.84 231.888C1086.61 231.875 1087.43 231.939 1088.21 232.082L1189.12 251.409C1194.3 252.41 1198.17 256.729 1198.53 261.997L1215.25 492.127L1321.85 285.34C1323.84 281.468 1327.76 279.115 1331.98 279.046C1332.76 279.033 1333.57 279.098 1334.35 279.24L1427.33 297.03C1430.91 297.708 1433.97 300.023 1435.58 303.294C1437.18 306.564 1437.17 310.403 1435.55 313.649L1262.83 659.622C1260.88 663.571 1256.88 666.002 1252.62 666.072L1252.66 666.11Z" fill="#FE2C55"/>
<path d="M1086.03 243.558L1186.95 262.885L1204.96 510.407C1205.26 514.435 1208.56 516.708 1211.85 516.654C1214.1 516.617 1216.37 515.455 1217.65 512.991L1332.25 290.715L1425.23 308.505L1252.5 654.478L1119.22 628.933L1086.07 243.519M1085.68 220.256C1080.1 220.347 1074.71 222.452 1070.5 226.244C1065.08 231.142 1062.28 238.246 1062.91 245.527L1096.06 630.942C1096.97 641.32 1104.63 649.843 1114.86 651.808L1248.15 677.353C1249.74 677.676 1251.34 677.805 1252.93 677.779C1261.46 677.639 1269.4 672.778 1273.35 664.918L1446.07 318.945C1449.34 312.415 1449.33 304.775 1446.12 298.234C1442.91 291.694 1436.79 287.063 1429.63 285.707L1336.65 267.917C1335.05 267.594 1333.46 267.465 1331.87 267.491C1323.42 267.629 1315.55 272.374 1311.56 280.079L1223.91 450.101L1210.19 261.225C1209.43 250.727 1201.69 242.05 1191.34 240.048L1090.42 220.721C1088.83 220.437 1087.24 220.269 1085.65 220.295L1085.68 220.256Z" fill="black"/>
<path d="M749.896 671.386C741.838 671.386 734.142 668.243 728.22 662.602L548.163 494.793C489.943 439.153 484.383 339.918 535.914 277.992C560.854 248.016 595.866 231.497 634.424 231.497C668.389 231.497 701.386 244.349 728.622 267.959C756.544 237.581 793.893 220.417 832.773 220.417C865.851 220.417 897.398 233.189 921.693 256.396C979.832 311.916 985.392 411.151 933.821 473.077L773.828 660.104C768.349 666.712 760.21 670.862 751.668 671.345C751.064 671.345 750.5 671.386 749.936 671.386H749.896Z" fill="#F4F000"/>
<path d="M832.773 232.463C861.782 232.463 890.388 243.181 913.353 265.099C967.02 316.388 972.016 408.25 924.554 465.341L764.642 652.247C761.177 656.438 756.221 658.976 750.943 659.258C750.581 659.258 750.218 659.258 749.896 659.258C744.98 659.258 740.226 657.324 736.56 653.819L556.382 485.889C502.715 434.6 497.719 342.738 545.181 285.647C568.549 257.564 600.983 243.503 634.424 243.503C667.784 243.503 702.152 257.484 729.63 285.365C756.906 250.433 795.142 232.423 832.813 232.423M832.813 208.249C794.094 208.249 756.906 223.801 727.736 251.561C700.137 230.61 667.744 219.329 634.464 219.329C592.24 219.329 553.924 237.379 526.647 270.175C471.208 336.815 477.171 443.584 539.742 503.335C539.822 503.415 539.903 503.456 539.943 503.536L720.041 671.385C728.219 679.121 738.816 683.392 749.936 683.392C750.742 683.392 751.547 683.392 752.394 683.311C764.239 682.626 775.44 676.986 783.175 667.759L943.007 480.974C943.007 480.974 943.168 480.812 943.208 480.732C998.647 414.092 992.685 307.323 930.114 247.572C903.563 222.189 868.994 208.249 832.813 208.249Z" fill="black"/>
<path d="M753.933 741.116C744.576 741.116 735.628 737.35 728.769 730.491L501.394 511.206C427.653 437.801 420.682 316.937 485.326 235.889C520.482 191.823 569.32 166.547 619.313 166.547C657.525 166.547 693.837 181.236 724.332 209.047C724.631 209.308 725.003 209.457 725.413 209.457C725.712 209.457 726.271 209.382 726.681 208.898C757.624 173.369 798.744 153.797 842.474 153.797C886.205 153.797 930.531 173.183 965.911 208.413C1039.5 281.67 1046.51 402.571 981.829 483.581L781.558 727.583C775.22 735.524 765.826 740.482 755.909 741.041C755.275 741.041 754.604 741.078 753.97 741.078L753.933 741.116ZM646.341 262.395C644.887 262.395 643.396 262.395 641.905 262.47C612.267 263.7 585.35 277.121 566.076 300.273C523.427 351.533 528.087 433.7 576.216 479.667L734.584 627.261C738.275 630.802 743.122 632.778 748.005 632.778C748.378 632.778 748.714 632.778 749.087 632.778C754.194 632.48 759.264 629.945 762.545 625.956L903.503 461.176C946.04 410.064 941.454 327.935 893.362 282.005C873.529 263.067 847.843 252.665 820.926 252.665C818.354 252.665 815.744 252.777 813.135 252.963C785.025 255.014 757.997 268.174 737.045 290.058C734.845 292.332 731.9 293.488 728.955 293.488C726.42 293.488 723.885 292.63 721.797 290.915C699.69 272.536 672.885 262.433 646.229 262.433L646.341 262.395Z" fill="#FE2C55"/>
<path d="M842.437 164.982C883.185 164.982 924.529 183.063 957.97 216.354C1027.42 285.51 1034.17 400.036 973.031 476.647L772.835 720.5C768.361 726.129 761.986 729.522 755.201 729.894C754.753 729.894 754.306 729.932 753.896 729.932C747.558 729.932 741.37 727.322 736.598 722.55L509.112 503.117C439.658 433.961 432.91 319.435 494.013 242.823C527.23 201.181 572.973 177.694 619.238 177.694C652.977 177.694 687.015 190.183 716.727 217.286C719.188 219.523 722.282 220.604 725.376 220.604C728.955 220.604 732.534 219.113 735.069 216.205C765.528 181.199 803.74 164.944 842.437 164.944M729.03 282.229C704.984 262.247 675.719 251.174 646.304 251.174C644.664 251.174 643.061 251.174 641.42 251.286C608.576 252.666 578.789 267.503 557.464 293.115C511.199 348.738 516.195 437.801 568.5 487.757L726.979 635.463C732.683 640.906 740.289 643.963 748.006 643.963C748.565 643.963 749.124 643.963 749.683 643.925C757.997 643.441 765.863 639.452 771.157 633.077L912.04 468.446C958.306 412.86 953.31 323.76 901.154 273.915C879.047 252.815 850.863 241.444 821.001 241.444C818.168 241.444 815.297 241.556 812.427 241.742C781.484 243.979 751.771 258.556 729.067 282.229M842.475 142.576C798.446 142.576 756.953 160.955 724.668 194.508C693.613 168.859 657.377 155.326 619.313 155.326C565.927 155.326 513.883 182.131 476.603 228.881C408.417 314.328 415.798 441.753 493.379 518.961C493.454 519.035 493.566 519.11 493.64 519.222L721.015 738.544C729.999 747.416 741.668 752.263 753.933 752.263C754.791 752.263 755.648 752.263 756.506 752.188C769.554 751.443 781.856 745.03 790.245 734.554L990.367 490.777C990.367 490.777 990.516 490.628 990.553 490.553C1058.74 405.106 1051.36 277.681 973.777 200.473C936.273 163.155 889.635 142.576 842.437 142.576H842.475ZM729.067 304.597C734.957 304.597 740.848 302.286 745.21 297.7C764.26 277.83 788.716 265.863 814.067 264.036C816.378 263.887 818.727 263.775 821.038 263.775C845.383 263.775 867.751 272.872 885.758 290.021C906.56 309.891 919.496 339.119 921.249 370.211C923.001 401.266 913.42 431.762 895.003 453.943L754.232 618.463C754.232 618.463 754.082 618.612 754.008 618.724C752.666 620.327 750.541 621.408 748.453 621.557C748.341 621.557 748.192 621.557 748.043 621.557C746.03 621.557 743.979 620.7 742.451 619.246C742.376 619.171 742.302 619.134 742.264 619.059L583.896 471.465C562.796 451.259 550.158 422.777 548.405 391.275C546.653 360.183 556.234 329.613 574.725 307.393C591.949 286.703 615.995 274.698 642.427 273.617C643.769 273.58 645.074 273.543 646.379 273.543C670.425 273.543 694.694 282.751 714.789 299.453C718.964 302.92 724.034 304.635 729.067 304.635V304.597Z" fill="black"/>
<path fill-rule="evenodd" clip-rule="evenodd" d="M654.774 376.031C672.065 342.836 708.937 350.03 734.002 374.934C734.099 375.031 734.292 375.031 734.389 374.934C757.164 346.449 796.133 335.385 816.359 370.063C829.779 393.063 826.456 422.225 809.262 442.581L748.293 514.744C746.873 516.421 744.873 517.421 742.744 517.55C740.615 517.679 738.518 516.905 736.905 515.389L668.387 450.903C647.903 431.645 641.806 400.967 654.774 376.031Z" fill="#FE2C55" stroke="black" stroke-width="23.2661" stroke-linecap="round"/>
</svg>
